<svg xmlns="http://www.w3.org/2000/svg" width="512" height="512" viewBox="0 0 55 60"><path d="M55 23.067a29.965 29.965 0 00-1.047-8.491 16.572 16.572 0 00-5.978-8.6C42.33 1.553 37.054-.28 30.886.033a67.106 67.106 0 00-9.673 1.383c-4.511.907-7.788 2.493-10.019 4.849A18.981 18.981 0 007.182 12.8a26.426 26.426 0 00-.908 3.272l-.08.346c-.21.779-.495 1.536-.849 2.261-.206.462-.413.924-.592 1.4a3.375 3.375 0 00-.269 1.681 3.819 3.819 0 001.459 2.227c.491.45.813.765.816 1.053-.04.15-.098.292-.175.426a38.643 38.643 0 01-4.378 7.121c-.718.877-1.47 1.9-1.317 2.939.219.788.74 1.459 1.449 1.866.33.228.68.429 1.043.6.431.22 1.154.588 1.2.853.065.337.027.685-.109 1-.149.312-.3.582-.435.817-.367.649-.982 1.737-.057 2.515.216.19.586.481.924.74-.25.44-.362.943-.322 1.447.054.391.267.743.589.973.224.159.463.3.7.432.588.335.817.492.9.8.054.407.017.822-.108 1.213a9.546 9.546 0 00-.149.787c-.101.91.013 1.83.335 2.687a3.7 3.7 0 004.357 2.644 81.58 81.58 0 008.436-2.523c2.248 1.328 3.669 5.345 4.039 6.852a1 1 0 00.971.762l25.1-.069a1 1 0 00.953-1.293 7.712 7.712 0 00-1.019-1.913 9.434 9.434 0 01-.64-1.061 19.646 19.646 0 01-1.13-2.86 33.288 33.288 0 01-1.178-5.914c-.354-2.99.097-6.02 1.308-8.778a22.451 22.451 0 012.715-4.286c.6-.813 1.227-1.653 1.789-2.54a15.375 15.375 0 002.45-8.21zm-5.844 9.567a24.305 24.305 0 00-2.942 4.678 18.89 18.89 0 00-1.46 9.818A35.065 35.065 0 0046 53.394a21.8 21.8 0 001.24 3.142 11 11 0 00.771 1.291l.072.109L25.408 58a15.963 15.963 0 00-3.525-6.388c.255-.089.5-.172.721-.252.758-.265 1.331-.466 1.617-.556 4.287-1.346 6.431-3.294 6.373-5.791a1.039 1.039 0 00-1.024-.977 1 1 0 00-.976 1.024c.024 1.03-.819 2.532-4.974 3.836-.3.094-.891.3-1.678.577-.713.25-1.588.556-2.545.883A83.191 83.191 0 0110.8 52.95a1.774 1.774 0 01-2.064-1.342 3.881 3.881 0 01-.241-1.764c.027-.207.074-.414.12-.622a4.436 4.436 0 00.094-2.137 3.3 3.3 0 00-1.844-2.046l-.214-.123c.107-.218.235-.426.383-.619a1 1 0 00-.192-1.42c-.24-.178-.812-.606-1.222-.935.051-.093.108-.2.161-.289.154-.271.329-.584.5-.941a3.7 3.7 0 00.269-2.236c-.233-1.227-1.4-1.825-2.261-2.261a5.89 5.89 0 01-.832-.483 5.211 5.211 0 01-.588-.476c0-.15.16-.516.929-1.455a40.37 40.37 0 004.569-7.428c.24-.412.375-.878.392-1.355a3.482 3.482 0 00-1.465-2.5c-.4-.37-.786-.72-.829-1.028a1.73 1.73 0 01.16-.7c.164-.434.355-.86.546-1.286.408-.841.733-1.72.971-2.624l.081-.349a24.6 24.6 0 01.836-3.029 16.989 16.989 0 013.587-5.862c1.937-2.04 4.869-3.44 8.961-4.263a65.02 65.02 0 019.381-1.346c5.658-.3 10.515 1.414 15.751 5.522a14.423 14.423 0 015.287 7.57A27.931 27.931 0 0153 23.038a13.427 13.427 0 01-2.139 7.179c-.524.822-1.126 1.633-1.708 2.417h.003z"/><path d="M21 17h1a1 1 0 000-2h-1a3 3 0 00-3 3v1a3 3 0 003 3h1a1 1 0 000-2h-1a1 1 0 01-1-1v-1a1 1 0 011-1zm7-3a1 1 0 00-1 1v2a1 1 0 01-1 1h-1a1 1 0 000 2h1a3 3 0 003-3v-2a1 1 0 00-1-1z"/><path d="M32 14v-1a3 3 0 00-3-3h-2a3 3 0 00-3 3v1a1 1 0 002 0v-1a1 1 0 011-1h2a1 1 0 011 1v1a1 1 0 002 0zm3 7h-1a1 1 0 01-1-1v-1a1 1 0 00-2 0v1a3 3 0 003 3h1a1 1 0 000-2zm5-3a1 1 0 00-1-1h-1a1 1 0 010-2h1a1 1 0 000-2h-1a3 3 0 000 6h1a1 1 0 001-1zm3 0a1 1 0 00-1 1v2a1 1 0 01-1 1h-1a1 1 0 000 2h1a3 3 0 003-3v-2a1 1 0 00-1-1z"/><path d="M50.96 21c0-.016-.008-.029-.009-.045a24.6 24.6 0 00-.848-5.284 12.483 12.483 0 00-4.593-6.54C40.987 5.583 36.886 4 32.209 4c-.368 0-.74.01-1.121.028-.341.018-.682.057-1.023.085-.023 0-.042-.013-.065-.013a.905.905 0 00-.155.031A70.279 70.279 0 0022 5.338a23.366 23.366 0 00-3.344.921c-.023.009-.046.014-.068.024A11.565 11.565 0 0014.1 9.016a14.85 14.85 0 00-2.882 4.511.99.99 0 00-.075.177c-.067.164-.144.319-.206.486-.307.833-.79 2.907-.851 3.168-.225 1.119-.783 4.954 1.486 7.36 1.44 1.526 3.642 2.09 6.534 1.68l1.346-.192c6.416-.923 9.636-1.386 12.407 1.324a63.816 63.816 0 001.647 1.57c-.629 1.978-1.445 6.2 1.9 8.7C39 40.5 39 41.231 39 43a1 1 0 001.447.9C40.709 43.764 43 42.488 43 38c0-2.455 1.83-4.577 3.637-6.333l.03-.027a9.671 9.671 0 002.5-2.5 11.561 11.561 0 001.533-3.729.99.99 0 00.09-.411c.126-.656.196-1.321.21-1.989A28.63 28.63 0 0050.96 21zM41 38a7.645 7.645 0 01-.352 2.454c-.467-1.169-1.549-2.38-4.048-4.255-1.987-1.488-1.847-3.962-1.418-5.7a10.727 10.727 0 006.6 2.361c.39-.003.779-.026 1.166-.068A8.7 8.7 0 0041 38zm6.48-9.926a6.5 6.5 0 01-2.849 2.368A8.783 8.783 0 0139 30.358V29a1 1 0 011-1h3a1 1 0 000-2h-3a3 3 0 00-3 3v.311a27.155 27.155 0 01-3.745-3.21A8.515 8.515 0 0029 23.76V23a1 1 0 00-2 0v.516c-2.628.005-5.25.243-7.835.711l-1.342.191a9.644 9.644 0 01-1.823.094V24a1 1 0 00-2 0v.048a3.353 3.353 0 01-.977-.7A4.493 4.493 0 0111.968 21H13a3 3 0 003-3 1 1 0 00-2 0 1 1 0 01-1 1h-1.121c.027-.41.08-.816.159-1.219.131-.568.5-2.1.733-2.781H16a1 1 0 000-2h-2.318a12.434 12.434 0 011.867-2.609A8.321 8.321 0 0118 8.693V10a3 3 0 003 3 1 1 0 000-2 1 1 0 01-1-1V7.91c.789-.246 1.59-.45 2.4-.61.852-.172 1.724-.337 2.6-.494V7a1 1 0 002 0v-.527c.666-.1 1.333-.192 2-.265V7a1 1 0 002 0v-.958c.063 0 .127-.012.189-.016A21.45 21.45 0 0133 6.025V10a1 1 0 001 1h2a1 1 0 000-2h-1V6.243a16.87 16.87 0 015.013 1.692c0 .023-.013.042-.013.065v3a1 1 0 002 0V9.09c.656.425 1.32.889 2 1.412V13a1 1 0 01-1 1 1 1 0 000 2 3 3 0 003-3v-.685a9.821 9.821 0 012.179 3.9A21.8 21.8 0 0148.863 20H47a1 1 0 000 2h1.979c.007.327.023.652.018.982-.005.348-.043.683-.081 1.018H47a1 1 0 000 2h1.464a9.78 9.78 0 01-.984 2.074z"/></svg>