<svg height="494.497" width="496.275" xmlns="http://www.w3.org/2000/svg"><g stroke="#555"><path d="M337.35 135.422c-7.942 6.151-29.81 14.24-36.912 21.345-22.866 22.842-40.373 49.476-52.306 78.989-11.92-29.513-32.52-56.652-55.373-79.494-7.103-7.112-25.884-21.252-33.833-27.404C164.04 88.395 213.445 32.591 245.33.707c31.896 31.884 86.906 90.507 92.02 134.715z" fill="#d6b900" fill-opacity=".963"/><g fill="#d44f4f"><path d="M248.132 235.756c-11.403 28.212-17.447 58.604-17.447 89.525 0 2.637.036 5.286.144 7.923-24.335-60-72.27-107.587-131.934-131.705v-.012c-1.144-32.439 4.347-65.636 17.303-97.677 20.831 8.417 39.832 19.434 56.761 32.535a236.697 236.697 0 0122.601 19.916c22.854 22.842 40.651 49.983 52.572 79.495z"/><path d="M397.38 201.5c-84.745 34.257-145.84 115.895-149.236 213.15-1.01-28.79-7.068-56.22-17.315-81.445a193.863 193.863 0 01-.144-7.923c0-30.921 6.045-61.313 17.447-89.525 11.933-29.513 29.717-56.653 52.583-79.495a237.905 237.905 0 0122.59-19.904c16.941-13.113 35.941-24.13 56.784-32.547 12.956 32.041 18.435 65.238 17.291 97.677z"/></g><path d="M486.638 184.195c2.8 0 5.6 0 8.5.1-4.6 131.8-115.2 234.9-247 230.3 3.4-97.3 64.5-178.9 149.2-213.2 27.6-11.2 57.8-17.3 89.2-17.3zm-255.8 149c10.2 25.2 16.3 52.7 17.3 81.4-131.8 4.6-242.4-98.5-247-230.3 2.8-.1 5.7-.1 8.5-.1 31.5 0 61.6 6.1 89.2 17.3 59.7 24.1 107.6 71.7 131.9 131.7z" fill="#2296aa" stroke-width="2.2"/></g><text font-family="Optician Sans" font-size="94.292" font-weight="400" stroke-width="2.357" x="28.74" y="493.554"><tspan dx=".08" letter-spacing="20" x="28.74" y="493.554">Lowtus</tspan></text></svg>