<svg viewBox="0 0 66 52" xmlns="http://www.w3.org/2000/svg"><switch><g fill="none" stroke-miterlimit="10" stroke-width="1.5"><path d="M50.8 36.2H21.7M8 21.8V9.4c0-2.1 1.7-3.7 3.7-3.7h40.9c2.1 0 3.7 1.7 3.7 3.7v19.5" stroke="#02697a"/><path d="M21.9 23.8v19.6c0 1.1-.9 2-2 2H6.4c-1.1 0-2-.9-2-2V23.8c0-1.1.9-2 2-2h13.5c1.1.1 2 .9 2 2zm38 6.4v14c0 .7-.5 1.2-1.2 1.2h-6.6c-.7 0-1.2-.5-1.2-1.2v-14c0-.7.5-1.2 1.2-1.2h6.6c.7 0 1.2.6 1.2 1.2zm-55.5 13h17.7m28.9 0h8.9m-37.8-13h28.8M39.7 44.6h-4.2v-8.4H29v8.4h-4.2c-.2 0-.4.2-.4.4v.2c0 .2.2.4.4.4h14.9c.2 0 .4-.2.4-.4V45c0-.2-.2-.4-.4-.4z" stroke="#02697a"/><path d="M14.8 27.7l-4 6.7m4.4-3.4l-4 6.7M35.8 9.9l-7 11.8m6.4-6.7l-7 11.8m28.1 5.8l-2.4 4m2.8-.9l-2.3 4" stroke="#7fa03e" stroke-linecap="round" stroke-linejoin="round"/></g></switch></svg>