<svg height="1706.667" viewBox="0 0 879 1280" width="1172" xmlns="http://www.w3.org/2000/svg"><path d="m524 .6c-29.8 3.9-65.7 24.4-98.4 56.3-37.1 36.2-52.4 65.3-62 118.1-5.1 28.1-11.2 72.6-13.8 100.5-1.7 18.8-1.7 76.4 0 92 3.4 30.4 9.6 56.7 19.1 80.4 2 4.9 2 5.3.4 4.8-34.4-10.1-48.3-13.4-70.8-16.7-52.1-7.6-106.2-5.6-151 5.6-39.1 9.9-70.9 27.5-95.6 53.1-15.6 16.2-25.8 32.1-30.6 47.7-2.8 9.5-4.8 34.1-3.8 47.6 2 27.4 13.4 58.6 31 85 3.8 5.8 8.2 12.4 9.6 14.6l2.7 4-9.3-.4c-7-.3-10.6 0-14.6 1.3-15.9 5.1-28.2 19.6-34.1 40-2 6.9-2.3 10.2-2.2 23.5.1 30.3 7.6 62 21.4 90.6 5.5 11.3 22.9 38 33.4 51.1 3.6 4.5 6.6 8.4 6.6 8.7s-.7.6-1.5.6c-3 0-11.7 5.2-16.2 9.6-11.8 11.8-15.8 34.1-11.8 65.1 5.9 44.8 21.2 81 44.6 105.8 4.5 4.7 8 8.7 7.8 8.9-.2.1-2 1.2-4 2.4-9.5 5.7-14 20-11.9 37.4 2.8 23.2 14.5 45.9 34.5 66.6 14.8 15.5 33.3 28.6 57.4 40.7 22.8 11.5 37.3 15.8 68.1 20.5 11.3 1.7 25.7 4.2 32 5.6 36.1 8 34.7 7.8 60 7.8 19.8 0 25.5-.3 36.4-2.2 14.7-2.5 28.7-6 39.5-9.7l7.4-2.5 7.6 2.4c16.3 5.1 23.3 6.1 45.1 6.1 20.7 0 30.7-1.1 53.5-6.1 31.5-6.8 76.3-25.4 109-45.4 13.7-8.4 27.3-18.9 39.6-30.7l5.6-5.4 1.7 2.6c2.9 4.5 8.9 6.5 19.2 6.5 11.2 0 20.7-1.6 46.7-8 45.3-11 61.8-19.8 77.9-41.3 12.1-16.4 19-31.9 34.7-77.9 13-38.1 17.9-55 22.6-78.2 8.5-42.3 10.9-69.2 10.9-125.1 0-47.9-1.8-116.3-3.5-128.2-4.1-30.5-17.8-53.4-46.2-77.9-23.6-20.3-50.8-35-78.9-42.9l-5.6-1.6-1.2-5.2c-2.2-9.2-8-25.8-12.5-35.3-9.4-20.2-18.3-31.4-46.3-58.1-41.3-39.4-50.5-49.6-62.6-69.3-12.8-20.7-18.9-35.1-22.7-54.2-5-25.4-7-44-6.9-66.8 0-21.7.9-31 7.5-78 9.6-68.8 13.3-101.9 14.2-127.5 1.2-37.9-4-69-14.8-87.1-8-13.6-22.9-24.5-39.9-29.4-7.4-2.1-26.8-3.4-35-2.4zm23.8 14c24.2 4.9 39.6 21.4 45.7 48.9 6.5 29.2 6.2 58.3-1 115.5-1.3 10.7-3.8 31.2-5.5 45.5-1.6 14.3-4.3 32.1-5.9 39.5-8.9 40.5-10.5 85.2-4.1 115.9 4.7 22.5 16.5 51.6 28.2 69.6 8.7 13.5 24.7 31.3 52.5 58.3 38.3 37.4 47.8 48.4 56.9 66.4 13.6 26.9 19.8 56.5 24 114.8 2.9 40.2.3 65.3-9.6 90-1.2 3-6.3 13.1-11.3 22.4-9.2 17.2-14.9 30.7-16.2 38.3-.6 3.9-.5 4.4 1.9 5.4 3.4 1.6 10.1-.3 12-3.4.7-1.2 2.1-5.4 3.1-9.2 1.1-4.3 6.3-15.8 13.5-30 13.1-25.6 17-35.5 19.9-50.9 3.5-17.9 4.3-30.8 3.2-53-1.1-20.7-4-49.9-6.5-64.1-.8-4.4-1.3-8.1-1.1-8.3.5-.5 18.5 6.8 25.7 10.4 23.7 11.9 44.6 28.1 61.2 47.5 15.8 18.3 23.2 35.8 25.5 60.1.9 9.7 1.5 27.6 3 101.3 1.3 62.4-1.8 107.9-10 147.1-4.3 21-8.7 35.5-19.6 64.3-5.3 14.1-12.2 33.7-15.5 43.6-3.2 9.9-8.6 23.6-11.9 30.4-5.5 11.2-6.9 13.2-14.7 21-8 7.9-9.8 9.2-23.5 15.9-29.9 14.8-42.3 18.6-61.7 18.7-11.1 0-13-.2-16.7-2.3-6.7-3.5-7.6-5.5-6.3-14.3 1.6-10.4 4.3-19.4 10.2-33.8 6.1-14.7 5.9-15.7-2.3-15.4-3 .2-6.6.8-8.1 1.4-3.7 1.5-13 12.6-18.6 22.1-10 17.3-41.2 53.1-62.7 72-7.1 6.2-11.6 9.2-21 13.8-35.5 17.4-69.9 28-100.5 31.1-12.9 1.3-34.7.6-45-1.5l-6.5-1.2 3.3-2c31.3-18.1 60.5-42.3 79.1-65.4 13.9-17.2 31.7-49.3 41-73.8 6.7-17.5 13.4-50.5 16.7-82.2 1.8-17.5 1.4-26.7-1.8-36.8-2.6-8.6-4.3-11.9-12.7-24.7-8.6-13-10.5-18.3-9.9-27.9.6-9.3 3.4-15.4 10.1-21.9 6.2-6.1 15.3-10.9 26.4-13.8 10-2.7 26.8-2.9 89.3-1 25 .8 46.7 1.1 48.2.8 3.8-1 8.6-5.3 7.3-6.6-.5-.5-8.2-2.2-17-3.6-42-6.9-82.2-19.9-110-35.7-14-7.9-24.1-15.4-34.9-25.8-18.2-17.7-29.2-37.9-32.6-60.6-.9-5.8-1-17.9-.5-45.4.9-47.7-.2-57.3-8.6-74.8-5.1-10.6-14.6-20.8-31.3-33.4-6.7-5.1-14.3-11.3-17-13.8-5-4.7-14.9-17.2-25-32-7.6-11-9.3-12.8-12.7-13.5-4.6-1-6.4.2-10.5 6.8-10.1 16.5-28.5 30.2-48.1 35.9-7.1 2.1-9.9 2.3-30.8 2.3-21.5 0-23.4-.2-29.5-2.3-10.5-3.8-17.6-8.8-32.5-22.9-7.7-7.2-17.1-15.7-21-18.8-16.3-13.1-36.8-25.1-52.9-31-6.9-2.5-8.1-2.7-11.6-1.6-4.6 1.4-7.9 5.3-6.1 7.4.6.7 5.3 3 10.4 5 21.3 8.5 38.3 20.2 70.2 48.7 47.7 42.5 62.7 51.6 81.9 49.5 15.1-1.6 31.3-7.7 45.9-17.3 11.8-7.7 21.3-8.9 39.8-5.2 20.4 4.2 34.3 10.9 47.2 23 9 8.4 15.5 18.3 19.3 29.5 3.2 9.5 4.3 27.5 2.5 39.1-3.7 23.7-14.7 46.7-29.7 61.8-26.9 27.2-64.1 37.6-134.5 37.6-42 0-69.7-8-90.3-26.1-4.6-4.1-4.6-4.1-4-9.2.4-3.8-.1-8-2-15.7-1.4-5.8-2.6-12.4-2.6-14.7 0-3.2-.5-4.5-2-5.3-2.6-1.4-8.3-.3-11.5 2.2-3.4 2.6-3.3 9.2 0 21.8 1.4 5.2 2.4 10.5 2.1 11.6-1 3.7-6.8 5.7-15.5 5.2-11.2-.6-22-5.5-62.6-28.1-47.4-26.5-73-49.4-95.1-85.2-12.5-20.4-20.9-40.7-25.5-62.5-3.2-14.5-3.4-44.8-.5-55.5 5.2-19.3 16.5-38.1 32.4-54.4 27.9-28.5 57-41.5 106.2-47.6 26.1-3.3 100.7-2.9 129 .5 35.1 4.4 60.2 14.2 77.5 30.3 8.2 7.6 11.4 8.8 16.8 6.2 5.7-2.7 5.6-4.3-1.3-16.1-18-30.8-28.3-67-32.1-112.9-1.7-20.4-.6-71.9 2-96 13.3-122.5 22.8-150.2 66.6-194.1 41.8-41.9 79.4-58.9 114.3-51.8zm-486.8 686.5 6.5 1 11.5 11.3c20.9 20.4 42.7 35.8 75.2 53 31 16.4 57.5 26.9 104.3 41.6 42.6 13.3 50.9 14.5 96.5 13.7 43.5-.8 63.9-3.8 91.1-13.2 18.5-6.5 30.5-5.8 47.6 2.9 25.1 12.6 36.1 27.4 37.9 51.1 1.7 21.9-5.5 46-19.1 63.3-19.1 24.4-67.8 52.5-123.5 71.4-49.1 16.6-76.3 20.4-97.7 13.7l-3.2-1 5.6-3c8.2-4.3 14.7-9.3 24.2-18.4 7.4-7.2 17.1-18.4 17.1-19.9 0-1.1-9.9-.6-12.5.6-1.4.6-5.1 4.5-8.4 8.7-13.9 18-29.7 29.5-42.3 30.8-6.2.6-21.8-2.3-32.8-6.2-11.6-4-45.3-18.5-53-22.7-26-14.2-79.5-51.8-107.1-75.2-12.6-10.8-25.4-27.4-35.2-45.6-6.5-12.2-20.2-44.4-23.2-54.7-8.9-30.8-9.7-65.7-1.7-82.7s21.9-23.8 42.2-20.5zm12.9 216.7c22.4 19.1 60.1 45.3 89.1 61.9 15.5 8.9 48.9 25.6 61.5 30.6 14.5 5.8 25.4 8.4 42.8 10.2 7.8.8 20.2 2.2 27.5 3.1 27.3 3.4 53.8-1.1 102-17.1 18.3-6.1 30.3-11.4 61.1-27.2 30.3-15.5 29.3-15.3 42.5-8.9 11.8 5.7 19.9 14.3 25.5 27 4.4 10.1 8.1 28.8 8.1 41.1 0 20.3-7.3 32.3-29.5 49-17 12.6-21.2 14.7-56 27.5-4.9 1.8-18 7.1-29 11.8-56.1 23.8-70.7 28-99.5 28.9l-17.4.6 4.8-5.4c2.6-2.9 5.6-7 6.7-9.1 2.7-5.4 4.9-14.4 4.9-20.5v-5.3h-4.2c-2.4 0-5.9.8-7.8 1.8-3.4 1.6-3.5 2-4.2 8.7-1.3 13-5.7 21.2-13.2 24.6-3.1 1.4-6.5 1.9-13.7 1.9-11.5 0-20.8-2.4-39.3-10.1-17.6-7.4-25.1-9.9-55.1-18.9-60.8-18.2-72.4-23.6-91.9-42.8-17.6-17.3-27.6-38.6-36-76.7-12.3-55.9-9.6-83.8 8.9-90.3 4.8-1.7 5.4-1.5 11.4 3.6zm34.7 192.1c18.5 6.1 44 14.1 68.9 21.6 10.5 3.2 26.4 8.6 35.5 12.2 31.1 12.2 40 14.9 62 18.9 17.7 3.1 42.2 4.2 55.5 2.5 17.2-2.3 46.1-10.8 66.5-19.6 15.2-6.5 41.3-16.7 50.5-19.6 10.5-3.4 23.7-3.9 32.2-1.4 6.2 1.8 13.4 8 16.1 13.8 3 6.2 4.7 23.6 3.2 32.9-2.3 14.8-7.4 22-32.5 45.4-18.9 17.6-23.1 20.8-39.5 30.1-31 17.5-53 22.5-98.5 22.7-29.3.1-41-1.8-47.2-7.6-4.3-4-3.2-7.3 4.8-14.7 7.8-7.3 8.3-9.6 2.3-10.7-4.5-.8-8.5.7-14.2 5.5-18.3 15.3-47.6 17.3-77.7 5.4-19.7-7.8-49.1-24.1-62.1-34.4-15.2-12.1-32-34-42.3-55.5-9.1-18.7-12.9-35.4-10.2-43.7 1.4-4.3 6.3-8.7 9.6-8.7 1.3 0 9 2.2 17.1 4.9z"/></svg>